<svg width="247" height="48" viewBox="0 0 247 48" fill="none" xmlns="http://www.w3.org/2000/svg">
<path d="M50.88 2.49603V47.424H39.936V20.48L29.888 47.424H21.056L10.944 20.416V47.424H0V2.49603H12.928L25.536 33.6L38.016 2.49603H50.88Z" fill="#7C3AED"/>
<path d="M90.174 11.712V47.424H79.23V42.56C78.1207 44.1387 76.606 45.4187 74.686 46.4C72.8087 47.3387 70.718 47.808 68.414 47.808C65.6833 47.808 63.2727 47.2107 61.182 46.016C59.0913 44.7787 57.47 43.008 56.318 40.704C55.166 38.4 54.59 35.6907 54.59 32.576V11.712H65.47V31.104C65.47 33.4934 66.0887 35.3494 67.326 36.672C68.5633 37.9947 70.2273 38.656 72.318 38.656C74.4513 38.656 76.1367 37.9947 77.374 36.672C78.6113 35.3494 79.23 33.4934 79.23 31.104V11.712H90.174Z" fill="#7C3AED"/>
<path d="M139.763 11.328C144.2 11.328 147.72 12.672 150.323 15.36C152.968 18.048 154.291 21.7814 154.291 26.56V47.424H143.411V28.032C143.411 25.728 142.792 23.9574 141.555 22.72C140.36 21.44 138.696 20.8 136.563 20.8C134.43 20.8 132.744 21.44 131.507 22.72C130.312 23.9574 129.715 25.728 129.715 28.032V47.424H118.835V28.032C118.835 25.728 118.216 23.9574 116.979 22.72C115.784 21.44 114.12 20.8 111.987 20.8C109.854 20.8 108.168 21.44 106.931 22.72C105.736 23.9574 105.139 25.728 105.139 28.032V47.424H94.195V11.712H105.139V16.192C106.248 14.6987 107.699 13.5254 109.491 12.672C111.283 11.776 113.31 11.328 115.571 11.328C118.259 11.328 120.648 11.904 122.739 13.056C124.872 14.208 126.536 15.8507 127.731 17.984C128.968 16.0214 130.654 14.4214 132.787 13.184C134.92 11.9467 137.246 11.328 139.763 11.328Z" fill="#7C3AED"/>
<path d="M169.049 16.768C170.073 15.104 171.545 13.76 173.465 12.736C175.385 11.712 177.582 11.2 180.057 11.2C183.001 11.2 185.668 11.9467 188.057 13.44C190.446 14.9334 192.324 17.0667 193.689 19.84C195.097 22.6134 195.801 25.8347 195.801 29.504C195.801 33.1734 195.097 36.416 193.689 39.232C192.324 42.0054 190.446 44.16 188.057 45.696C185.668 47.1894 183.001 47.936 180.057 47.936C177.54 47.936 175.342 47.4454 173.465 46.464C171.588 45.44 170.116 44.096 169.049 42.432V47.424H158.105V0.0640259H169.049V16.768ZM184.665 29.504C184.665 26.7734 183.897 24.64 182.361 23.104C180.868 21.5254 179.012 20.736 176.793 20.736C174.617 20.736 172.761 21.5254 171.225 23.104C169.732 24.6827 168.985 26.8374 168.985 29.568C168.985 32.2987 169.732 34.4534 171.225 36.032C172.761 37.6107 174.617 38.4 176.793 38.4C178.969 38.4 180.825 37.6107 182.361 36.032C183.897 34.4107 184.665 32.2347 184.665 29.504Z" fill="#7C3AED"/>
<path d="M208.646 0.0640259V47.424H197.702V0.0640259H208.646Z" fill="#7C3AED"/>
<path d="M246.402 28.992C246.402 30.016 246.337 31.0827 246.21 32.192H221.441C221.612 34.4107 222.316 36.1174 223.553 37.312C224.833 38.464 226.391 39.04 228.226 39.04C230.956 39.04 232.855 37.888 233.922 35.584H245.57C244.972 37.9307 243.884 40.0427 242.306 41.92C240.77 43.7974 238.828 45.2694 236.482 46.336C234.135 47.4027 231.511 47.936 228.609 47.936C225.111 47.936 221.996 47.1894 219.266 45.696C216.535 44.2027 214.402 42.0694 212.866 39.296C211.33 36.5227 210.562 33.28 210.562 29.568C210.562 25.856 211.308 22.6134 212.801 19.84C214.337 17.0667 216.471 14.9334 219.202 13.44C221.932 11.9467 225.068 11.2 228.609 11.2C232.065 11.2 235.137 11.9254 237.826 13.376C240.514 14.8267 242.604 16.896 244.098 19.584C245.633 22.272 246.402 25.408 246.402 28.992ZM235.202 26.112C235.202 24.2347 234.562 22.7414 233.282 21.632C232.002 20.5227 230.402 19.968 228.482 19.968C226.647 19.968 225.09 20.5014 223.81 21.568C222.572 22.6347 221.804 24.1494 221.506 26.112H235.202Z" fill="#7C3AED"/>
</svg>
